<?xml version="1.0" encoding="UTF-8"?>
<svg id="layer" xmlns="http://www.w3.org/2000/svg" viewBox="0 0 88.03 38.31">
  <defs>
    <style>
      .cls-1 {
        fill: #fff;
        stroke-width: 0px;
      }
    </style>
  </defs>
  <path class="cls-1" d="m68.87,0c-10.58,0-19.16,8.58-19.16,19.16s8.58,19.16,19.16,19.16,19.16-8.58,19.16-19.16S79.45,0,68.87,0Zm-3.23,30.48V7.05l12.59,11.71-12.59,11.72Z"/>
  <g>
    <path class="cls-1" d="m0,26.63c2.28-2.68,3.95-6.22,4.6-8.46.43.54,1.22,1.44,2.23,2.01-.43,1.56-1.35,4.13-3.63,7.78.02.14.04.25.04.38,0,.23-.14.29-.25.29-.18,0-.32-.09-.43-.18l-2.57-1.83ZM2.53,9.74c1.1.81,3.02,2.59,3.61,3.38-1.1.83-1.65,1.42-2.32,2.32-.36-.41-1.76-1.96-3.54-3.47l2.26-2.23Zm11.93,6.02c.56.05.72.18.72.41s-.32.34-.52.43c-.02.56-.05.97-.16,1.8.45,1.78,1.87,5.62,7.01,8.46-1.08,1.01-1.49,1.42-2.14,2.66-2.21-1.29-4.83-4.2-6.09-6.54-.95,2.19-3.07,4.96-6.77,6.67-.36-.77-.86-1.56-2.28-2.57,7.42-2.37,7.31-9.45,7.26-11.57l2.95.25Zm-1.74-6.34c.27.07.52.14.52.38,0,.27-.23.32-.61.38-.25.68-.43,1.13-.68,1.78h8.28l1.26,1.2c-.79,2.93-1.8,4.85-2.89,6.56-1.11-.61-2.35-.95-3.04-1.08.68-1.08,1.33-2.28,1.76-3.56h-6.74c-.59,1.2-.95,1.83-1.92,3.11-1.4-.86-1.94-1.13-3.13-1.31,2.75-3.18,3.74-6.65,4.06-8.23l3.13.77Z"/>
    <path class="cls-1" d="m22.18,20.61c1.96-1.44,3.59-3.29,5.03-5.25,1.83-2.48,2.44-3.29,3.81-3.29s2.35.95,3.81,2.8c1.94,2.41,4.98,6.22,9.27,9.18-.81.81-2.1,2.68-2.53,3.43-3.79-3.2-6.4-6.43-9.45-10.17-.18-.23-.79-.97-1.22-.97-.38,0-.79.61-1.1,1.06-2.57,3.79-2.84,4.19-4.6,6.13l-3.02-2.91Z"/>
  </g>
</svg>